PathFileType	4	(X/Y/Z)	G:\マイドライブ\biomec\experimentalData\240725\SJ2.trc
DataRate	CameraRate	NumFrames	NumMarkers	Units	OrigDataRate	OrigDataStartFrame	OrigNumFrames
200.00	200.00	      4	52	mm	200.00	695	      1851
Frame#	Time	handR			wrRI			wrRO			elbRI			elbRO			shRF			shRU			shRB			handL			wrLI			wrLO			elbLI			elbLO			shLF			shLU			shLB			toeR			baRI			baRO			heelR			anRI			anRO			knRI			knRO			troR			toeL			baLI			baLO			heelL			anLI			anLO			knLI			knLO			troL			head			earR			earL			clav			c7			ribR			ribL			xiph			ASISR			ASISL			PSISR			PSISL			t8			t11			L1			L3			LS			COX			
		X1	Y1	Z1	X2	Y2	Z2	X3	Y3	Z3	X4	Y4	Z4	X5	Y5	Z5	X6	Y6	Z6	X7	Y7	Z7	X8	Y8	Z8	X9	Y9	Z9	X10	Y10	Z10	X11	Y11	Z11	X12	Y12	Z12	X13	Y13	Z13	X14	Y14	Z14	X15	Y15	Z15	X16	Y16	Z16	X17	Y17	Z17	X18	Y18	Z18	X19	Y19	Z19	X20	Y20	Z20	X21	Y21	Z21	X22	Y22	Z22	X23	Y23	Z23	X24	Y24	Z24	X25	Y25	Z25	X26	Y26	Z26	X27	Y27	Z27	X28	Y28	Z28	X29	Y29	Z29	X30	Y30	Z30	X31	Y31	Z31	X32	Y32	Z32	X33	Y33	Z33	X34	Y34	Z34	X35	Y35	Z35	X36	Y36	Z36	X37	Y37	Z37	X38	Y38	Z38	X39	Y39	Z39	X40	Y40	Z40	X41	Y41	Z41	X42	Y42	Z42	X43	Y43	Z43	X44	Y44	Z44	X45	Y45	Z45	X46	Y46	Z46	X47	Y47	Z47	X48	Y48	Z48	X49	Y49	Z49	X50	Y50	Z50	X51	Y51	Z51	X52	Y52	Z52	

695	3.470	538.83179	766.29596	691.23059	501.54993	695.88727	683.39471	484.95197	730.41095	744.51660	498.99072	573.54169	900.27826	555.41302	530.74152	861.08459	779.74152	735.27930	940.85754	701.53088	695.74146	1010.39563	763.25891	698.18506	997.00970	537.63422	1035.88806	704.61444	489.25488	1102.44910	700.75317	488.23779	1058.26257	763.34009	504.46863	1219.10449	910.87366	558.49536	1264.27466	866.02777	773.15375	1050.91101	951.47131	756.53479	1086.42456	1007.72491	682.09363	1072.81055	1017.79456	700.48798	738.18500	46.36573	621.43927	792.27179	33.88360	589.41394	669.03033	43.00172	414.57672	771.25879	42.10386	516.48785	808.09265	107.44585	490.70914	713.05188	106.25610	711.58789	823.26825	398.43967	725.26685	707.67682	404.23984	435.23663	713.70331	642.53125	709.91187	1077.00012	46.88862	643.46661	1021.64941	50.39830	605.25842	1131.59082	46.25116	425.43381	1046.45923	40.91640	536.93506	1005.83649	124.67691	502.42062	1095.09436	108.80544	714.58435	988.77667	414.68674	712.00635	1111.12659	426.47357	432.10614	1076.43445	648.63464	822.27643	889.67957	1247.69202	889.93970	817.53528	1086.78345	877.84259	975.22552	1088.74707	783.60828	903.26660	929.98242	741.54565	894.03693	1066.34912	571.05206	796.85962	717.44666	567.29657	1003.65240	724.11505	703.88745	900.70978	787.24426	494.15646	792.58618	632.94794	491.64343	1010.53241	650.65527	362.91010	834.49274	754.45685	367.80606	954.92371	762.37524	557.86755	894.31561	958.06299	478.07516	894.03638	863.32300	439.39230	896.58960	818.33038	399.48706	894.19977	784.37030	351.67868	896.01703	758.39398	269.51614	899.09930	660.27710	
696	3.475	538.62659	766.18506	691.23926	501.22870	695.87488	683.24408	484.69785	730.39801	744.37592	498.60907	573.35303	900.04944	555.02057	530.57391	860.89117	779.26483	734.88464	941.01923	701.00006	695.42200	1010.45715	762.85846	697.98962	997.14490	537.57153	1035.84985	704.72699	489.21188	1102.40173	700.83264	488.13983	1058.13306	763.40668	503.92639	1218.82996	911.46265	558.25232	1264.07458	866.31256	772.83978	1050.64111	951.85779	756.14691	1086.09021	1008.11713	681.71399	1072.56433	1018.08832	700.48340	738.17572	46.41663	621.42780	792.26801	33.89158	589.41687	669.01978	43.00176	414.59811	771.26062	42.09681	516.41479	808.05231	107.43906	490.69876	713.04016	106.22694	711.50555	822.99225	398.51117	725.10577	707.34735	404.23737	435.01328	713.69147	642.43304	709.90576	1076.99377	46.93999	643.47601	1021.67181	50.39406	605.24774	1131.60156	46.26850	425.43018	1046.47742	40.87634	536.90796	1005.84821	124.67169	502.41000	1095.11914	108.83467	714.47772	988.76630	414.62274	711.99792	1111.10083	426.45837	432.04465	1076.40479	648.61371	821.21057	889.30182	1248.10315	889.18311	817.02008	1087.30933	877.23828	974.74084	1089.31116	783.32123	902.98981	930.17548	741.08936	893.71021	1066.56335	570.83008	796.73590	717.42224	567.18048	1003.54340	724.18646	703.72418	900.55902	787.45038	494.01907	792.54791	632.94159	491.63846	1010.45874	650.64667	362.64172	834.46509	754.33264	367.70758	954.93921	762.26837	557.51074	894.07800	958.10406	477.79755	893.94183	863.33099	439.21887	896.55646	818.25934	399.23245	894.12097	784.28125	351.35803	895.99036	758.32965	269.33820	899.18842	660.14551	
697	3.480	538.40637	766.14050	691.25226	500.85815	695.86530	683.07507	484.45200	730.37451	744.26282	498.25647	573.22278	899.85687	554.70215	531.10870	860.73151	778.82251	734.43469	941.20319	700.57324	695.08740	1010.47827	762.50323	697.82709	997.22870	537.54803	1035.74780	704.84589	489.18198	1102.36121	700.93781	488.02798	1058.02026	763.46545	504.18542	1218.72729	911.20764	558.09137	1263.87000	866.53448	772.56097	1050.35242	952.23090	755.85181	1085.68933	1008.42780	681.32373	1072.24316	1018.42694	700.48120	738.16431	46.42307	621.43530	792.25195	33.89165	589.42731	669.00922	42.99525	414.57193	771.24255	42.08622	516.44641	808.02045	107.46579	490.70264	712.99426	106.19566	711.40759	822.66656	398.59503	724.89966	707.05200	404.25998	434.75775	713.68579	642.35712	709.88177	1077.02368	46.95638	643.45532	1021.68524	50.41872	605.21729	1131.60657	46.24098	425.41281	1046.48364	40.86324	536.87897	1005.88141	124.69040	502.39731	1095.14905	108.78591	714.35846	988.76373	414.56329	712.00043	1111.09167	426.45160	431.95023	1076.37561	648.58624	820.51575	889.06165	1248.27295	888.57306	816.51318	1087.82410	876.77936	974.35510	1089.88489	782.87177	902.92798	930.38123	740.58539	893.40411	1066.77881	570.57147	796.58044	717.41235	567.07544	1003.45630	724.22565	703.55206	900.42230	787.63965	493.92072	792.50793	632.91425	491.55954	1010.38086	650.65430	362.43433	834.42566	754.20636	367.49133	954.93872	762.18323	557.18549	893.85046	958.09814	477.52130	893.88702	863.33557	438.97812	896.50342	818.21130	398.99005	894.05377	784.17578	351.08197	895.97626	758.21918	269.18152	899.26215	660.02325	
698	3.485	538.17419	766.08899	691.24628	500.50937	695.83856	682.89832	484.20764	730.34192	744.19470	497.92798	573.01807	899.67358	554.25989	530.25226	860.40521	778.36847	734.09344	941.26123	700.14374	694.75128	1010.53741	762.04047	697.51740	997.34631	537.37402	1035.61389	704.84698	489.12537	1102.29761	701.04846	487.90356	1057.90344	763.56342	503.98990	1218.53711	911.39636	557.90784	1263.60242	866.83405	772.21887	1050.03906	952.58392	755.53210	1085.36206	1008.73828	680.90796	1071.90771	1018.71265	700.47321	738.17261	46.45502	621.41937	792.25012	33.91005	589.41980	669.01556	42.99341	414.57404	771.25104	42.06189	516.20099	808.11951	107.76746	490.67297	712.99652	106.17632	711.25201	822.34674	398.66312	724.70959	706.73169	404.28232	434.40390	713.64636	642.30487	709.90570	1077.01184	46.98101	643.41998	1021.65900	50.44882	605.23944	1131.62390	46.23755	425.40753	1046.49731	40.82858	536.84167	1005.90894	124.68578	502.42340	1095.15771	108.79536	714.22784	988.76776	414.50879	711.97363	1111.06787	426.47617	431.87988	1076.34058	648.57086	819.28253	888.46118	1248.77100	887.81226	815.84338	1088.43530	876.18658	973.93463	1090.37805	782.32257	902.91498	930.58356	739.97076	893.07172	1066.99536	570.32001	796.43591	717.43756	566.98181	1003.36127	724.29523	703.54358	899.92059	788.07928	493.77628	792.45026	632.89380	491.86151	1011.21783	652.06903	362.21817	834.37592	754.08148	367.37018	954.94592	762.10657	556.84619	893.64661	958.13202	477.18863	893.81885	863.35046	438.72650	896.44739	818.15863	398.71738	894.00220	784.09161	350.81476	895.99683	758.12878	268.99075	899.33600	659.85632	
